<svg xmlns="http://www.w3.org/2000/svg" viewBox="0 0 1024 768" fill="none" stroke="currentColor" stroke-width="1.0" stroke-linecap="round" stroke-linejoin="round">
<polyline points="637.0,198.0 636.0,186.0 634.0,182.0 635.0,177.0 631.0,174.0 626.0,174.0 616.0,182.0 613.0,182.0 608.0,187.0 597.0,193.0 594.0,201.0"/>
<polyline points="637.0,198.0 636.0,204.0 638.0,206.0"/>
<polyline points="637.0,198.0 667.0,214.0 676.0,217.0"/>
<polyline points="594.0,201.0 593.0,208.0 590.0,211.0 583.0,212.0 582.0,221.0"/>
<polyline points="594.0,201.0 592.0,201.0 589.0,209.0 582.0,211.0 582.0,221.0"/>
<polyline points="638.0,206.0 638.0,212.0"/>
<polyline points="638.0,206.0 643.0,206.0 654.0,213.0 663.0,216.0 664.0,218.0"/>
<polyline points="638.0,212.0 640.0,216.0 649.0,221.0"/>
<polyline points="638.0,212.0 621.0,217.0 614.0,224.0 611.0,229.0 607.0,250.0 598.0,262.0 589.0,265.0 579.0,263.0 579.0,268.0 595.0,269.0 602.0,265.0 610.0,254.0 615.0,232.0 619.0,225.0 629.0,219.0 637.0,220.0 638.0,222.0"/>
<polyline points="676.0,217.0 672.0,221.0"/>
<polyline points="676.0,217.0 680.0,217.0 688.0,221.0"/>
<polyline points="664.0,218.0 662.0,220.0 649.0,221.0"/>
<polyline points="664.0,218.0 672.0,221.0"/>
<polyline points="688.0,221.0 713.0,220.0 717.0,216.0 723.0,215.0 724.0,213.0 737.0,215.0 740.0,212.0 748.0,220.0 778.0,220.0 781.0,223.0 780.0,243.0 771.0,245.0"/>
<polyline points="688.0,221.0 705.0,231.0 717.0,235.0"/>
<polyline points="582.0,221.0 578.0,238.0 576.0,240.0 576.0,246.0 573.0,250.0 569.0,261.0 569.0,266.0 566.0,270.0 567.0,273.0 565.0,280.0 562.0,284.0 563.0,292.0"/>
<polyline points="638.0,222.0 638.0,231.0 640.0,233.0 648.0,234.0"/>
<polyline points="638.0,222.0 640.0,221.0 644.0,223.0 644.0,227.0 648.0,230.0 648.0,234.0"/>
<polyline points="649.0,221.0 654.0,228.0"/>
<polyline points="672.0,221.0 674.0,226.0 700.0,238.0 701.0,242.0 697.0,243.0 664.0,238.0 655.0,235.0"/>
<polyline points="654.0,228.0 655.0,226.0 660.0,226.0 663.0,230.0 665.0,230.0 665.0,234.0 655.0,231.0"/>
<polyline points="654.0,228.0 655.0,231.0"/>
<polyline points="756.0,230.0 757.0,226.0 759.0,226.0 761.0,230.0 774.0,228.0 775.0,235.0 767.0,238.0"/>
<polyline points="756.0,230.0 745.0,230.0 742.0,228.0 728.0,229.0 718.0,232.0 717.0,235.0"/>
<polyline points="756.0,230.0 763.0,233.0 763.0,235.0 767.0,238.0"/>
<polyline points="655.0,231.0 655.0,235.0"/>
<polyline points="648.0,234.0 653.0,236.0 655.0,235.0"/>
<polyline points="717.0,235.0 720.0,238.0 727.0,238.0 729.0,242.0 734.0,243.0"/>
<polyline points="767.0,238.0 771.0,245.0"/>
<polyline points="734.0,243.0 734.0,240.0 740.0,236.0 748.0,237.0 753.0,243.0"/>
<polyline points="734.0,243.0 734.0,245.0 743.0,249.0"/>
<polyline points="753.0,243.0 755.0,246.0 754.0,250.0"/>
<polyline points="753.0,243.0 744.0,244.0 743.0,249.0"/>
<polyline points="771.0,245.0 771.0,254.0"/>
<polyline points="743.0,249.0 750.0,251.0 754.0,250.0"/>
<polyline points="754.0,250.0 756.0,252.0 762.0,252.0"/>
<polyline points="762.0,252.0 760.0,250.0 760.0,241.0 764.0,242.0 767.0,248.0 765.0,253.0"/>
<polyline points="762.0,252.0 765.0,253.0"/>
<polyline points="765.0,253.0 771.0,254.0"/>
<polyline points="771.0,254.0 774.0,259.0 774.0,265.0 777.0,271.0 776.0,273.0 779.0,278.0 778.0,281.0 781.0,287.0 782.0,298.0 785.0,300.0"/>
<polyline points="799.0,280.0 798.0,289.0 795.0,292.0 789.0,292.0 787.0,294.0 787.0,305.0"/>
<polyline points="799.0,280.0 792.0,277.0 788.0,277.0 784.0,280.0 784.0,290.0 786.0,292.0 785.0,300.0"/>
<polyline points="799.0,280.0 802.0,280.0 803.0,285.0"/>
<polyline points="821.0,281.0 819.0,278.0 811.0,276.0 807.0,278.0 806.0,284.0 803.0,285.0"/>
<polyline points="821.0,281.0 821.0,288.0 819.0,288.0 817.0,292.0 804.0,291.0 803.0,285.0"/>
<polyline points="821.0,281.0 825.0,282.0 825.0,289.0 827.0,292.0 869.0,291.0 875.0,293.0"/>
<polyline points="623.0,286.0 627.0,274.0 632.0,266.0 696.0,285.0"/>
<polyline points="623.0,286.0 623.0,290.0 616.0,304.0 616.0,308.0 614.0,312.0 612.0,312.0"/>
<polyline points="623.0,286.0 620.0,290.0 612.0,312.0"/>
<polyline points="696.0,285.0 703.0,290.0 704.0,295.0 708.0,290.0 711.0,290.0"/>
<polyline points="696.0,285.0 711.0,290.0"/>
<polyline points="712.0,290.0 717.0,295.0 717.0,298.0 705.0,299.0 704.0,304.0 706.0,306.0 719.0,306.0 722.0,312.0 721.0,386.0 724.0,389.0"/>
<polyline points="712.0,290.0 730.0,295.0 734.0,298.0 747.0,334.0"/>
<polyline points="571.0,292.0 573.0,282.0 577.0,281.0 574.0,298.0 572.0,300.0"/>
<polyline points="571.0,292.0 572.0,300.0"/>
<polyline points="571.0,292.0 568.0,294.0"/>
<polyline points="223.0,293.0 218.0,292.0 216.0,294.0 216.0,304.0"/>
<polyline points="223.0,293.0 222.0,301.0"/>
<polyline points="223.0,293.0 233.0,294.0 233.0,303.0"/>
<polyline points="563.0,292.0 547.0,338.0"/>
<polyline points="563.0,292.0 568.0,294.0"/>
<polyline points="875.0,293.0 823.0,293.0 823.0,300.0 828.0,307.0"/>
<polyline points="875.0,293.0 878.0,293.0 880.0,296.0 879.0,301.0 876.0,303.0 875.0,324.0 876.0,354.0 878.0,357.0"/>
<polyline points="198.0,293.0 196.0,299.0 198.0,303.0 208.0,303.0"/>
<polyline points="198.0,293.0 195.0,292.0 192.0,296.0"/>
<polyline points="198.0,293.0 205.0,293.0 208.0,295.0 208.0,303.0"/>
<polyline points="568.0,294.0 567.0,296.0"/>
<polyline points="192.0,296.0 192.0,302.0 189.0,305.0 113.0,305.0 110.0,309.0 112.0,323.0 110.0,346.0"/>
<polyline points="192.0,296.0 193.0,303.0 198.0,309.0 198.0,316.0 195.0,319.0 195.0,323.0 198.0,325.0"/>
<polyline points="567.0,296.0 555.0,329.0 556.0,335.0"/>
<polyline points="567.0,296.0 570.0,297.0 569.0,311.0"/>
<polyline points="572.0,300.0 572.0,305.0 569.0,311.0"/>
<polyline points="785.0,300.0 785.0,304.0 787.0,305.0"/>
<polyline points="222.0,301.0 225.0,304.0 233.0,303.0"/>
<polyline points="222.0,301.0 216.0,304.0"/>
<polyline points="208.0,303.0 213.0,305.0 216.0,304.0"/>
<polyline points="233.0,303.0 235.0,307.0 234.0,320.0"/>
<polyline points="787.0,305.0 787.0,308.0 789.0,309.0 787.0,321.0"/>
<polyline points="828.0,307.0 826.0,308.0 826.0,316.0"/>
<polyline points="828.0,307.0 856.0,307.0 858.0,310.0 858.0,362.0 857.0,373.0 853.0,376.0 825.0,374.0 824.0,361.0 826.0,336.0 829.0,334.0 833.0,341.0 837.0,339.0"/>
<polyline points="862.0,310.0 862.0,308.0 865.0,306.0 870.0,306.0 871.0,308.0 870.0,318.0 871.0,324.0 873.0,325.0 871.0,346.0"/>
<polyline points="862.0,310.0 862.0,371.0"/>
<polyline points="862.0,310.0 860.0,310.0 860.0,360.0 862.0,371.0"/>
<polyline points="569.0,311.0 565.0,332.0 563.0,334.0 556.0,335.0"/>
<polyline points="612.0,312.0 602.0,339.0 600.0,340.0 598.0,348.0 593.0,356.0 592.0,364.0"/>
<polyline points="826.0,316.0 829.0,317.0 834.0,309.0 839.0,312.0 841.0,316.0"/>
<polyline points="826.0,316.0 821.0,318.0"/>
<polyline points="841.0,316.0 841.0,336.0 839.0,340.0 837.0,339.0"/>
<polyline points="841.0,316.0 839.0,316.0 839.0,337.0 837.0,339.0"/>
<polyline points="821.0,318.0 822.0,308.0 820.0,307.0 796.0,307.0 792.0,309.0 791.0,311.0 794.0,312.0 794.0,315.0 791.0,344.0"/>
<polyline points="821.0,318.0 821.0,367.0 819.0,374.0 811.0,375.0 792.0,373.0"/>
<polyline points="234.0,320.0 227.0,320.0 226.0,323.0"/>
<polyline points="234.0,320.0 236.0,329.0 258.0,327.0 271.0,331.0 299.0,354.0 303.0,355.0 304.0,358.0 311.0,362.0 316.0,368.0 323.0,371.0 331.0,378.0 338.0,380.0 339.0,382.0 377.0,402.0 382.0,402.0 391.0,398.0 392.0,396.0 397.0,396.0 406.0,390.0 410.0,390.0 418.0,386.0 436.0,385.0 443.0,387.0"/>
<polyline points="787.0,321.0 785.0,378.0 783.0,379.0 783.0,398.0 780.0,399.0"/>
<polyline points="787.0,321.0 791.0,321.0 791.0,344.0"/>
<polyline points="226.0,323.0 200.0,323.0 198.0,325.0"/>
<polyline points="226.0,323.0 228.0,325.0 229.0,338.0 233.0,403.0 232.0,409.0"/>
<polyline points="198.0,325.0 198.0,361.0 200.0,364.0 201.0,406.0"/>
<polyline points="747.0,334.0 749.0,345.0 754.0,354.0 755.0,361.0"/>
<polyline points="747.0,334.0 745.0,334.0 743.0,329.0 740.0,330.0 741.0,369.0 739.0,374.0 741.0,375.0"/>
<polyline points="556.0,335.0 553.0,337.0"/>
<polyline points="547.0,338.0 541.0,340.0 539.0,343.0 539.0,346.0 546.0,350.0"/>
<polyline points="547.0,338.0 553.0,337.0"/>
<polyline points="553.0,337.0 553.0,339.0 548.0,342.0 546.0,350.0"/>
<polyline points="791.0,344.0 792.0,352.0"/>
<polyline points="110.0,346.0 112.0,351.0 112.0,366.0 110.0,406.0 108.0,408.0 83.0,408.0 80.0,406.0 34.0,408.0 32.0,405.0"/>
<polyline points="110.0,346.0 100.0,348.0"/>
<polyline points="871.0,346.0 871.0,373.0 868.0,375.0"/>
<polyline points="871.0,346.0 875.0,371.0 874.0,397.0 871.0,394.0 871.0,377.0 868.0,375.0"/>
<polyline points="100.0,348.0 101.0,384.0 98.0,386.0 94.0,385.0 92.0,382.0 92.0,360.0 90.0,358.0"/>
<polyline points="100.0,348.0 90.0,342.0 72.0,341.0 68.0,344.0 68.0,349.0 71.0,352.0 87.0,352.0 89.0,353.0 90.0,358.0"/>
<polyline points="546.0,350.0 547.0,353.0 555.0,360.0 557.0,369.0"/>
<polyline points="792.0,352.0 792.0,373.0"/>
<polyline points="792.0,352.0 788.0,358.0 789.0,373.0 792.0,373.0"/>
<polyline points="887.0,356.0 891.0,350.0 895.0,349.0 903.0,341.0 908.0,339.0 908.0,337.0 921.0,329.0 931.0,319.0 943.0,311.0 954.0,308.0 968.0,308.0 984.0,314.0 993.0,322.0 998.0,324.0 998.0,326.0 1005.0,329.0 1006.0,332.0 1014.0,337.0 1018.0,342.0 1024.0,344.0"/>
<polyline points="887.0,356.0 883.0,358.0 878.0,357.0"/>
<polyline points="887.0,356.0 888.0,358.0 949.0,359.0 950.0,398.0"/>
<polyline points="878.0,357.0 877.0,398.0 879.0,400.0 903.0,400.0 905.0,398.0 906.0,380.0 922.0,380.0 922.0,385.0 920.0,387.0 920.0,392.0 922.0,393.0 921.0,398.0 926.0,400.0 928.0,398.0 928.0,381.0 930.0,379.0 944.0,379.0 945.0,399.0 950.0,398.0"/>
<polyline points="90.0,358.0 78.0,369.0 76.0,369.0 69.0,377.0 67.0,377.0 67.0,379.0 59.0,384.0 59.0,386.0 55.0,387.0 48.0,395.0 32.0,403.0 32.0,405.0"/>
<polyline points="755.0,361.0 755.0,363.0 741.0,375.0"/>
<polyline points="755.0,361.0 759.0,366.0 761.0,374.0 759.0,376.0 749.0,376.0 742.0,379.0 741.0,397.0 744.0,400.0 758.0,400.0"/>
<polyline points="592.0,364.0 589.0,366.0"/>
<polyline points="592.0,364.0 629.0,366.0"/>
<polyline points="589.0,366.0 599.0,374.0 607.0,377.0 637.0,396.0 663.0,409.0 664.0,405.0 659.0,400.0 654.0,390.0 640.0,376.0 630.0,370.0 629.0,366.0"/>
<polyline points="589.0,366.0 584.0,366.0 573.0,360.0 567.0,360.0 562.0,369.0 557.0,369.0"/>
<polyline points="629.0,366.0 640.0,366.0 667.0,389.0 682.0,398.0 684.0,401.0 687.0,401.0 693.0,405.0 701.0,405.0 707.0,402.0 724.0,389.0"/>
<polyline points="557.0,369.0 554.0,376.0"/>
<polyline points="862.0,371.0 864.0,375.0 868.0,375.0"/>
<polyline points="741.0,375.0 724.0,389.0"/>
<polyline points="554.0,376.0 552.0,379.0 551.0,401.0 552.0,410.0 554.0,411.0"/>
<polyline points="554.0,376.0 566.0,378.0 567.0,371.0 574.0,370.0 575.0,365.0 580.0,366.0 580.0,370.0 571.0,377.0 573.0,411.0 554.0,411.0"/>
<polyline points="817.0,380.0 818.0,377.0 822.0,378.0 820.0,386.0 819.0,416.0 737.0,416.0 734.0,413.0 734.0,404.0 736.0,402.0 757.0,402.0 758.0,400.0"/>
<polyline points="817.0,380.0 790.0,381.0 789.0,398.0"/>
<polyline points="817.0,380.0 819.0,381.0 819.0,399.0 817.0,401.0 793.0,401.0 789.0,398.0"/>
<polyline points="443.0,387.0 445.0,382.0 445.0,288.0 442.0,285.0 413.0,284.0 411.0,282.0 411.0,268.0 416.0,265.0 438.0,266.0 443.0,261.0 462.0,261.0 468.0,266.0 525.0,265.0 534.0,268.0 542.0,280.0 541.0,285.0 517.0,285.0 508.0,291.0 491.0,290.0 488.0,285.0 484.0,284.0 468.0,284.0 461.0,287.0 461.0,302.0 463.0,304.0 474.0,305.0 474.0,333.0 462.0,335.0 460.0,337.0 459.0,396.0"/>
<polyline points="443.0,387.0 450.0,391.0 454.0,390.0 455.0,395.0 459.0,396.0"/>
<polyline points="459.0,396.0 474.0,409.0 480.0,411.0 482.0,414.0 485.0,414.0 487.0,417.0 492.0,418.0 494.0,421.0 503.0,424.0 515.0,433.0 516.0,436.0 520.0,437.0"/>
<polyline points="789.0,398.0 785.0,398.0 783.0,401.0 780.0,401.0 780.0,399.0"/>
<polyline points="950.0,398.0 954.0,403.0 954.0,414.0 952.0,416.0 914.0,416.0 912.0,418.0 912.0,427.0 909.0,431.0 913.0,432.0 915.0,429.0 918.0,429.0 921.0,433.0 924.0,433.0 927.0,429.0 931.0,429.0 933.0,433.0 936.0,433.0 938.0,429.0 943.0,429.0 944.0,433.0 948.0,433.0 950.0,430.0 956.0,430.0 963.0,436.0 963.0,441.0 966.0,443.0 966.0,446.0 963.0,447.0 965.0,454.0 960.0,457.0 961.0,462.0"/>
<polyline points="761.0,399.0 762.0,383.0 764.0,381.0 778.0,383.0 778.0,399.0"/>
<polyline points="761.0,399.0 758.0,400.0"/>
<polyline points="761.0,399.0 778.0,399.0"/>
<polyline points="32.0,405.0 20.0,410.0"/>
<polyline points="201.0,406.0 204.0,411.0 230.0,411.0 232.0,409.0"/>
<polyline points="201.0,406.0 198.0,407.0 197.0,411.0 193.0,410.0"/>
<polyline points="118.0,409.0 119.0,322.0 142.0,322.0 144.0,324.0 144.0,408.0 142.0,410.0"/>
<polyline points="118.0,409.0 111.0,412.0 109.0,445.0 94.0,445.0 92.0,443.0 92.0,426.0 89.0,420.0 71.0,419.0 69.0,422.0 68.0,444.0 64.0,444.0 63.0,422.0 61.0,420.0 41.0,420.0 39.0,429.0 39.0,444.0 28.0,445.0 27.0,447.0"/>
<polyline points="118.0,409.0 125.0,412.0 142.0,410.0"/>
<polyline points="152.0,409.0 151.0,324.0 152.0,322.0 189.0,322.0 191.0,324.0 192.0,342.0 193.0,410.0"/>
<polyline points="152.0,409.0 154.0,411.0 193.0,410.0"/>
<polyline points="152.0,409.0 148.0,409.0 146.0,411.0 142.0,410.0"/>
<polyline points="232.0,409.0 235.0,410.0 237.0,408.0 237.0,399.0 239.0,399.0 241.0,432.0 244.0,438.0 256.0,442.0 261.0,431.0 264.0,429.0"/>
<polyline points="20.0,410.0 25.0,415.0 25.0,438.0 23.0,440.0 2.0,441.0"/>
<polyline points="20.0,410.0 13.0,411.0 5.0,405.0 0.0,404.0"/>
<polyline points="554.0,411.0 555.0,417.0 520.0,437.0"/>
<polyline points="300.0,420.0 297.0,417.0 290.0,417.0 288.0,419.0 275.0,419.0 274.0,421.0"/>
<polyline points="300.0,420.0 274.0,421.0"/>
<polyline points="300.0,420.0 304.0,420.0 311.0,424.0 311.0,427.0 305.0,430.0"/>
<polyline points="274.0,421.0 264.0,422.0 264.0,429.0"/>
<polyline points="264.0,429.0 267.0,431.0"/>
<polyline points="305.0,430.0 307.0,435.0 319.0,440.0 319.0,443.0 306.0,438.0 299.0,433.0 271.0,433.0 270.0,431.0"/>
<polyline points="305.0,430.0 270.0,431.0"/>
<polyline points="267.0,431.0 263.0,441.0"/>
<polyline points="267.0,431.0 270.0,431.0"/>
<polyline points="520.0,437.0 521.0,440.0 535.0,440.0 544.0,432.0 553.0,431.0 563.0,440.0 607.0,440.0 625.0,424.0 633.0,420.0 636.0,420.0 646.0,414.0 665.0,413.0 667.0,415.0 667.0,428.0 679.0,438.0 679.0,441.0"/>
<polyline points="2.0,441.0 22.0,441.0 26.0,447.0"/>
<polyline points="263.0,441.0 262.0,446.0 269.0,448.0"/>
<polyline points="263.0,441.0 269.0,442.0 269.0,448.0"/>
<polyline points="679.0,441.0 681.0,443.0"/>
<polyline points="679.0,441.0 665.0,440.0 655.0,447.0 651.0,457.0 651.0,464.0 654.0,467.0"/>
<polyline points="700.0,441.0 682.0,440.0 681.0,443.0"/>
<polyline points="700.0,441.0 699.0,444.0 707.0,453.0 718.0,455.0 721.0,452.0 726.0,452.0 729.0,450.0"/>
<polyline points="700.0,441.0 729.0,441.0 729.0,450.0"/>
<polyline points="358.0,442.0 358.0,448.0"/>
<polyline points="358.0,442.0 356.0,423.0 351.0,417.0 350.0,419.0 353.0,423.0 354.0,446.0 355.0,448.0 358.0,448.0"/>
<polyline points="358.0,442.0 529.0,441.0 529.0,444.0 523.0,449.0 491.0,466.0 486.0,470.0 486.0,472.0 498.0,475.0 584.0,475.0 584.0,480.0 587.0,483.0 604.0,483.0 613.0,480.0 620.0,480.0 638.0,481.0 648.0,484.0 653.0,483.0 655.0,478.0"/>
<polyline points="681.0,443.0 688.0,451.0 688.0,466.0"/>
<polyline points="754.0,446.0 763.0,445.0 769.0,439.0 769.0,432.0 780.0,434.0 781.0,429.0 784.0,429.0 782.0,438.0 779.0,440.0 776.0,447.0 775.0,459.0 784.0,464.0 796.0,464.0 798.0,462.0 811.0,464.0 811.0,460.0 807.0,459.0 807.0,456.0 809.0,455.0 807.0,449.0 811.0,448.0 810.0,442.0 816.0,441.0 817.0,433.0 827.0,435.0 828.0,431.0 830.0,431.0 830.0,435.0 840.0,444.0 840.0,455.0 832.0,465.0 824.0,468.0 821.0,471.0 821.0,474.0 825.0,475.0 828.0,471.0 831.0,471.0 834.0,476.0"/>
<polyline points="754.0,446.0 744.0,455.0"/>
<polyline points="754.0,446.0 758.0,446.0 758.0,449.0 750.0,453.0 749.0,460.0 745.0,460.0 744.0,455.0"/>
<polyline points="26.0,447.0 25.0,470.0 23.0,473.0 23.0,478.0 27.0,480.0"/>
<polyline points="27.0,447.0 124.0,448.0 125.0,452.0 120.0,459.0 120.0,505.0 116.0,505.0 110.0,488.0 102.0,480.0 76.0,480.0 67.0,471.0 58.0,467.0 43.0,467.0 41.0,469.0"/>
<polyline points="358.0,448.0 359.0,452.0"/>
<polyline points="271.0,448.0 273.0,453.0 280.0,455.0 291.0,462.0 296.0,462.0"/>
<polyline points="271.0,448.0 288.0,446.0 293.0,448.0 296.0,453.0"/>
<polyline points="729.0,450.0 730.0,455.0 744.0,455.0"/>
<polyline points="359.0,452.0 360.0,460.0 372.0,467.0 374.0,471.0"/>
<polyline points="359.0,452.0 356.0,453.0 357.0,467.0 355.0,469.0 350.0,469.0 348.0,467.0 344.0,422.0 341.0,417.0 338.0,417.0 341.0,424.0 345.0,467.0 343.0,469.0 323.0,470.0 322.0,472.0"/>
<polyline points="296.0,453.0 296.0,462.0"/>
<polyline points="296.0,453.0 318.0,465.0 319.0,472.0"/>
<polyline points="234.0,456.0 233.0,453.0 222.0,446.0 201.0,446.0 199.0,444.0 203.0,421.0 206.0,417.0 219.0,418.0 222.0,421.0 222.0,428.0 225.0,432.0 262.0,449.0 270.0,455.0 282.0,459.0 287.0,464.0 291.0,464.0 296.0,468.0 296.0,470.0 291.0,470.0 288.0,472.0"/>
<polyline points="234.0,456.0 221.0,448.0 169.0,448.0 162.0,456.0 159.0,464.0 159.0,498.0 162.0,498.0 163.0,494.0 167.0,490.0"/>
<polyline points="234.0,456.0 274.0,481.0 280.0,479.0 280.0,477.0 283.0,477.0 283.0,475.0 288.0,472.0"/>
<polyline points="296.0,462.0 299.0,466.0 303.0,467.0 305.0,471.0"/>
<polyline points="961.0,462.0 961.0,464.0 955.0,468.0 955.0,470.0 949.0,471.0 944.0,475.0 934.0,473.0 933.0,475.0 929.0,476.0 925.0,474.0 914.0,476.0"/>
<polyline points="961.0,462.0 966.0,456.0 968.0,440.0 1024.0,440.0"/>
<polyline points="149.0,465.0 156.0,453.0 155.0,448.0 136.0,448.0 129.0,458.0 128.0,464.0 130.0,466.0 137.0,466.0"/>
<polyline points="149.0,465.0 149.0,470.0 140.0,470.0 137.0,466.0"/>
<polyline points="149.0,465.0 137.0,466.0"/>
<polyline points="688.0,466.0 683.0,466.0 682.0,468.0 654.0,467.0"/>
<polyline points="688.0,466.0 689.0,470.0 686.0,481.0"/>
<polyline points="654.0,467.0 655.0,478.0"/>
<polyline points="41.0,469.0 34.0,472.0 31.0,475.0 30.0,480.0 27.0,480.0"/>
<polyline points="41.0,469.0 54.0,470.0 58.0,474.0 68.0,478.0 78.0,488.0 85.0,488.0 89.0,490.0 104.0,501.0 108.0,502.0 115.0,509.0 125.0,512.0 127.0,515.0 131.0,516.0"/>
<polyline points="305.0,471.0 288.0,472.0"/>
<polyline points="305.0,471.0 319.0,472.0"/>
<polyline points="374.0,471.0 322.0,472.0"/>
<polyline points="374.0,471.0 389.0,473.0"/>
<polyline points="319.0,472.0 322.0,472.0"/>
<polyline points="197.0,472.0 197.0,474.0 209.0,477.0 219.0,486.0 229.0,506.0 229.0,532.0 223.0,545.0 216.0,552.0 208.0,556.0 208.0,558.0 212.0,559.0"/>
<polyline points="197.0,472.0 182.0,475.0 174.0,480.0 167.0,490.0"/>
<polyline points="197.0,472.0 210.0,472.0 219.0,481.0 247.0,482.0 257.0,496.0 262.0,518.0"/>
<polyline points="389.0,473.0 388.0,476.0 384.0,477.0 362.0,497.0 357.0,499.0 353.0,504.0 348.0,506.0 319.0,528.0 319.0,532.0 328.0,548.0 329.0,556.0"/>
<polyline points="389.0,473.0 402.0,471.0 410.0,474.0"/>
<polyline points="410.0,474.0 411.0,472.0 417.0,472.0 421.0,477.0 421.0,482.0"/>
<polyline points="410.0,474.0 415.0,480.0 421.0,482.0"/>
<polyline points="834.0,476.0 777.0,478.0 755.0,476.0 753.0,478.0 738.0,478.0 734.0,480.0 715.0,479.0 698.0,480.0 696.0,482.0 686.0,481.0"/>
<polyline points="834.0,476.0 844.0,476.0"/>
<polyline points="844.0,476.0 849.0,471.0 852.0,471.0 856.0,476.0 858.0,476.0 861.0,472.0 864.0,472.0 867.0,476.0"/>
<polyline points="844.0,476.0 867.0,476.0"/>
<polyline points="868.0,476.0 872.0,471.0 875.0,471.0 878.0,476.0 883.0,473.0 891.0,476.0 895.0,471.0 898.0,471.0 900.0,475.0 905.0,475.0 907.0,471.0 911.0,471.0 914.0,476.0"/>
<polyline points="868.0,476.0 914.0,476.0"/>
<polyline points="655.0,478.0 656.0,486.0 660.0,491.0 660.0,496.0 658.0,498.0"/>
<polyline points="27.0,480.0 18.0,502.0 18.0,519.0 20.0,522.0 21.0,531.0 10.0,540.0 0.0,543.0"/>
<polyline points="686.0,481.0 684.0,482.0 684.0,492.0 686.0,494.0"/>
<polyline points="421.0,482.0 427.0,491.0 434.0,495.0 457.0,516.0 464.0,518.0 474.0,530.0 487.0,529.0 489.0,531.0 493.0,531.0 494.0,527.0 487.0,521.0 487.0,517.0 495.0,510.0 500.0,508.0 510.0,497.0 516.0,494.0 523.0,494.0 537.0,506.0 556.0,517.0 561.0,522.0 580.0,531.0 602.0,545.0 601.0,548.0 581.0,551.0 519.0,552.0 515.0,555.0 490.0,555.0 482.0,553.0 476.0,556.0 466.0,556.0 464.0,558.0"/>
<polyline points="167.0,490.0 165.0,501.0 163.0,503.0 163.0,515.0 160.0,516.0"/>
<polyline points="686.0,494.0 684.0,495.0 683.0,502.0 679.0,506.0 679.0,511.0"/>
<polyline points="686.0,494.0 692.0,498.0"/>
<polyline points="658.0,498.0 654.0,499.0 652.0,502.0"/>
<polyline points="658.0,498.0 658.0,505.0 662.0,508.0 662.0,510.0"/>
<polyline points="692.0,498.0 688.0,502.0 687.0,509.0 685.0,511.0 679.0,511.0"/>
<polyline points="692.0,498.0 695.0,498.0 695.0,500.0"/>
<polyline points="695.0,500.0 690.0,525.0 682.0,529.0 673.0,530.0 656.0,530.0 651.0,528.0 650.0,517.0 652.0,503.0"/>
<polyline points="695.0,500.0 700.0,498.0 702.0,502.0"/>
<polyline points="652.0,502.0 656.0,503.0 656.0,508.0 658.0,510.0 662.0,510.0"/>
<polyline points="702.0,502.0 699.0,514.0 700.0,516.0 698.0,519.0 699.0,528.0"/>
<polyline points="702.0,502.0 708.0,502.0 711.0,504.0 720.0,514.0 734.0,534.0 741.0,550.0 741.0,559.0 734.0,576.0 724.0,593.0 719.0,599.0 717.0,599.0"/>
<polyline points="652.0,503.0 646.0,502.0 643.0,508.0"/>
<polyline points="149.0,508.0 150.0,502.0 130.0,501.0 128.0,503.0 130.0,508.0 144.0,508.0"/>
<polyline points="149.0,508.0 144.0,508.0"/>
<polyline points="149.0,508.0 151.0,509.0 150.0,516.0"/>
<polyline points="144.0,508.0 146.0,516.0"/>
<polyline points="640.0,508.0 639.0,512.0"/>
<polyline points="640.0,508.0 638.0,506.0 628.0,506.0 624.0,508.0 626.0,512.0 639.0,512.0"/>
<polyline points="640.0,508.0 643.0,508.0"/>
<polyline points="643.0,508.0 642.0,538.0 645.0,588.0"/>
<polyline points="662.0,510.0 666.0,511.0 669.0,516.0 674.0,516.0 679.0,511.0"/>
<polyline points="639.0,512.0 639.0,561.0 633.0,574.0 621.0,591.0 621.0,596.0"/>
<polyline points="146.0,516.0 131.0,516.0"/>
<polyline points="146.0,516.0 150.0,516.0"/>
<polyline points="150.0,516.0 160.0,516.0"/>
<polyline points="131.0,516.0 131.0,520.0 134.0,521.0 139.0,527.0 144.0,529.0 155.0,539.0 176.0,553.0 191.0,567.0 195.0,568.0 197.0,570.0 197.0,574.0 0.0,573.0"/>
<polyline points="160.0,516.0 163.0,521.0 163.0,525.0 153.0,527.0 153.0,532.0 165.0,532.0 172.0,544.0 181.0,552.0 189.0,556.0 212.0,559.0"/>
<polyline points="262.0,518.0 257.0,537.0 247.0,551.0 235.0,557.0 212.0,559.0"/>
<polyline points="262.0,518.0 267.0,520.0 267.0,533.0 271.0,543.0 280.0,551.0 298.0,557.0 329.0,556.0"/>
<polyline points="699.0,528.0 712.0,541.0 712.0,543.0"/>
<polyline points="699.0,528.0 696.0,530.0 698.0,552.0 701.0,569.0 704.0,576.0 705.0,588.0 709.0,589.0"/>
<polyline points="712.0,543.0 712.0,558.0 715.0,572.0"/>
<polyline points="712.0,543.0 714.0,543.0 722.0,553.0 722.0,558.0 715.0,572.0"/>
<polyline points="329.0,556.0 344.0,559.0"/>
<polyline points="464.0,558.0 464.0,562.0 462.0,563.0 443.0,562.0 441.0,564.0 429.0,564.0 421.0,561.0 418.0,561.0 415.0,564.0 405.0,564.0 395.0,561.0 389.0,561.0 386.0,563.0 375.0,563.0 371.0,561.0 348.0,563.0 345.0,562.0 344.0,559.0"/>
<polyline points="464.0,558.0 460.0,556.0 443.0,557.0 436.0,554.0 423.0,557.0 392.0,554.0 390.0,556.0 366.0,556.0 365.0,558.0 359.0,556.0 345.0,557.0 344.0,559.0"/>
<polyline points="715.0,572.0 709.0,589.0"/>
<polyline points="645.0,588.0 648.0,631.0 654.0,637.0"/>
<polyline points="645.0,588.0 634.0,600.0 627.0,598.0"/>
<polyline points="709.0,589.0 709.0,596.0"/>
<polyline points="621.0,596.0 618.0,598.0 616.0,606.0 616.0,611.0 618.0,613.0 626.0,610.0 627.0,598.0"/>
<polyline points="621.0,596.0 627.0,598.0"/>
<polyline points="709.0,596.0 706.0,596.0 700.0,602.0 695.0,610.0 696.0,613.0"/>
<polyline points="709.0,596.0 717.0,599.0"/>
<polyline points="717.0,599.0 717.0,606.0"/>
<polyline points="717.0,606.0 721.0,607.0 729.0,603.0 733.0,598.0 738.0,598.0 748.0,591.0 764.0,584.0 795.0,562.0 799.0,561.0 815.0,546.0 824.0,541.0 832.0,541.0 836.0,543.0 862.0,567.0 868.0,569.0 876.0,577.0 891.0,583.0 903.0,578.0 907.0,574.0 911.0,573.0 916.0,567.0 927.0,561.0 933.0,554.0 944.0,547.0 962.0,530.0 964.0,530.0 973.0,520.0 986.0,511.0 1001.0,512.0 1024.0,526.0"/>
<polyline points="717.0,606.0 715.0,615.0 709.0,614.0 703.0,617.0 697.0,638.0 693.0,645.0 692.0,653.0 690.0,654.0"/>
<polyline points="192.0,611.0 192.0,614.0 194.0,614.0"/>
<polyline points="192.0,611.0 184.0,612.0 180.0,615.0 186.0,616.0 194.0,614.0"/>
<polyline points="192.0,611.0 207.0,609.0 223.0,625.0 245.0,626.0 248.0,627.0 248.0,629.0 226.0,632.0 221.0,631.0 205.0,614.0 194.0,614.0"/>
<polyline points="696.0,613.0 696.0,617.0 694.0,618.0 689.0,634.0"/>
<polyline points="696.0,613.0 698.0,610.0 701.0,610.0 701.0,619.0 693.0,639.0 689.0,652.0 690.0,654.0"/>
<polyline points="689.0,634.0 687.0,647.0 685.0,648.0 684.0,654.0 681.0,657.0 668.0,657.0"/>
<polyline points="689.0,634.0 686.0,637.0 683.0,650.0 679.0,654.0 674.0,652.0 672.0,644.0 664.0,637.0 660.0,636.0 658.0,633.0 654.0,633.0 654.0,637.0"/>
<polyline points="654.0,637.0 657.0,642.0 659.0,642.0 659.0,645.0 664.0,649.0 668.0,657.0"/>
<polyline points="690.0,654.0 688.0,656.0 688.0,660.0"/>
<polyline points="668.0,657.0 666.0,660.0 660.0,663.0 656.0,663.0 652.0,666.0 646.0,666.0 641.0,670.0 629.0,673.0"/>
<polyline points="688.0,660.0 689.0,662.0 678.0,696.0 680.0,724.0 682.0,728.0 685.0,754.0 683.0,755.0 681.0,753.0 674.0,730.0 671.0,729.0 671.0,756.0 667.0,762.0"/>
<polyline points="688.0,660.0 683.0,675.0 680.0,678.0 680.0,685.0 675.0,703.0 670.0,710.0 669.0,754.0 667.0,762.0"/>
<polyline points="512.0,672.0 513.0,674.0 556.0,674.0"/>
<polyline points="512.0,672.0 502.0,672.0 502.0,676.0 510.0,683.0 510.0,685.0 541.0,722.0 541.0,734.0 536.0,736.0 533.0,748.0 527.0,757.0 528.0,762.0 533.0,766.0 533.0,768.0"/>
<polyline points="512.0,672.0 517.0,670.0 519.0,672.0 555.0,672.0 556.0,674.0"/>
<polyline points="556.0,674.0 583.0,674.0"/>
<polyline points="583.0,674.0 629.0,673.0"/>
<polyline points="583.0,674.0 627.0,675.0 629.0,673.0"/>
<polyline points="659.0,719.0 662.0,718.0 664.0,720.0 664.0,732.0"/>
<polyline points="659.0,719.0 661.0,731.0 664.0,732.0"/>
<polyline points="659.0,719.0 634.0,735.0 638.0,745.0 654.0,762.0 660.0,761.0 662.0,758.0 664.0,749.0 664.0,732.0"/>
<polyline points="584.0,724.0 584.0,719.0 578.0,716.0 566.0,715.0 556.0,718.0 549.0,724.0 542.0,734.0 542.0,739.0 540.0,742.0 541.0,750.0 539.0,753.0"/>
<polyline points="584.0,724.0 580.0,721.0 576.0,721.0 571.0,723.0 565.0,730.0 560.0,742.0 558.0,760.0 560.0,762.0 567.0,761.0 568.0,754.0 570.0,753.0"/>
<polyline points="584.0,726.0 583.0,734.0 576.0,738.0 572.0,743.0"/>
<polyline points="584.0,726.0 581.0,728.0 581.0,733.0 572.0,740.0 572.0,743.0"/>
<polyline points="594.0,734.0 591.0,729.0 587.0,729.0 586.0,739.0 592.0,751.0 596.0,750.0 597.0,744.0"/>
<polyline points="594.0,734.0 594.0,736.0 588.0,736.0 588.0,739.0 591.0,743.0 597.0,744.0"/>
<polyline points="595.0,734.0 595.0,741.0 597.0,744.0"/>
<polyline points="595.0,734.0 613.0,736.0 613.0,739.0 609.0,742.0 605.0,744.0 597.0,744.0"/>
<polyline points="572.0,743.0 570.0,753.0"/>
<polyline points="539.0,753.0 535.0,755.0 535.0,761.0 540.0,761.0"/>
<polyline points="539.0,753.0 541.0,756.0 540.0,761.0"/>
<polyline points="570.0,753.0 570.0,760.0 567.0,764.0 548.0,765.0 543.0,764.0 540.0,761.0"/>
<polyline points="667.0,762.0 663.0,768.0"/>
<polyline points="104.0,768.0 390.0,766.0 448.0,761.0 458.0,758.0 459.0,753.0 452.0,747.0 440.0,742.0 439.0,740.0 429.0,736.0 421.0,730.0 385.0,712.0 372.0,703.0 366.0,701.0 364.0,698.0 358.0,696.0 344.0,685.0 334.0,680.0 331.0,676.0 321.0,671.0 317.0,666.0 309.0,662.0 288.0,643.0 280.0,639.0 265.0,639.0 259.0,642.0 257.0,645.0 243.0,654.0 216.0,680.0 212.0,681.0 202.0,690.0 198.0,691.0 195.0,695.0 178.0,704.0 166.0,705.0 137.0,688.0 133.0,683.0 126.0,680.0 117.0,671.0 107.0,665.0 101.0,658.0 96.0,656.0 86.0,646.0 67.0,632.0 60.0,624.0 47.0,615.0 45.0,612.0 45.0,607.0 38.0,607.0 30.0,598.0 15.0,589.0 0.0,589.0"/>
<polyline points="594.0,768.0 596.0,758.0 608.0,749.0 635.0,750.0 650.0,766.0 650.0,768.0"/>
<polyline points="707.0,768.0 713.0,712.0 717.0,618.0 768.0,621.0 1024.0,622.0"/>
<polyline points="1024.0,490.0 1010.0,489.0 999.0,482.0 992.0,483.0 993.0,485.0 998.0,485.0 1009.0,492.0 1024.0,493.0"/>
<polyline points="738.0,192.0 736.0,203.0 741.0,204.0 743.0,200.0 743.0,193.0 738.0,192.0"/>
<polyline points="452.0,270.0 450.0,271.0 451.0,275.0 466.0,276.0 467.0,279.0 472.0,279.0 476.0,275.0 484.0,277.0 485.0,275.0 490.0,274.0 489.0,270.0 462.0,271.0 461.0,273.0 457.0,273.0 455.0,270.0 452.0,270.0"/>
<polyline points="499.0,270.0 492.0,274.0 493.0,279.0 503.0,275.0 503.0,271.0 499.0,270.0"/>
<polyline points="422.0,271.0 418.0,274.0 418.0,278.0 423.0,278.0 428.0,275.0 427.0,271.0 422.0,271.0"/>
<polyline points="437.0,271.0 430.0,275.0 430.0,279.0 435.0,279.0 441.0,275.0 441.0,272.0 437.0,271.0"/>
<polyline points="511.0,271.0 509.0,273.0 510.0,277.0 516.0,277.0 518.0,279.0 534.0,278.0 533.0,274.0 528.0,275.0 525.0,271.0 511.0,271.0"/>
<polyline points="761.0,300.0 767.0,320.0 772.0,321.0 766.0,301.0 761.0,300.0"/>
<polyline points="732.0,308.0 732.0,313.0 726.0,315.0 727.0,323.0 731.0,321.0 732.0,316.0 735.0,313.0 735.0,308.0 732.0,308.0"/>
<polyline points="450.0,320.0 451.0,364.0 449.0,366.0 449.0,370.0 451.0,371.0 450.0,383.0 453.0,383.0 456.0,377.0 456.0,374.0 453.0,372.0 453.0,366.0 455.0,363.0 455.0,327.0 453.0,320.0 450.0,320.0"/>
<polyline points="731.0,325.0 730.0,331.0 726.0,334.0 726.0,340.0 730.0,341.0 729.0,349.0 733.0,350.0 734.0,343.0 731.0,342.0 731.0,340.0 734.0,326.0 731.0,325.0"/>
<polyline points="727.0,353.0 726.0,361.0 729.0,363.0 730.0,370.0 728.0,379.0 732.0,380.0 732.0,372.0 735.0,370.0 735.0,367.0 732.0,363.0 732.0,354.0 727.0,353.0"/>
<polyline points="568.0,441.0 568.0,444.0 572.0,448.0 576.0,449.0 582.0,454.0 591.0,452.0 601.0,444.0 601.0,441.0 568.0,441.0"/>
<polyline points="893.0,444.0 886.0,451.0 886.0,455.0 890.0,459.0 896.0,459.0 901.0,454.0 901.0,447.0 893.0,444.0"/>
<polyline points="826.0,446.0 825.0,458.0 828.0,458.0 831.0,453.0 831.0,448.0 826.0,446.0"/>
<polyline points="606.0,458.0 603.0,460.0 602.0,466.0 618.0,464.0 625.0,468.0 629.0,468.0 629.0,465.0 624.0,464.0 619.0,459.0 606.0,458.0"/>
<polyline points="635.0,459.0 635.0,463.0 643.0,463.0 647.0,461.0 646.0,459.0 635.0,459.0"/>
<polyline points="130.0,472.0 128.0,474.0 128.0,478.0 130.0,480.0 150.0,479.0 150.0,474.0 148.0,472.0 130.0,472.0"/>
<polyline points="130.0,486.0 128.0,488.0 128.0,493.0 130.0,495.0 147.0,495.0 150.0,493.0 149.0,486.0 130.0,486.0"/>
<polyline points="832.0,494.0 829.0,495.0 829.0,499.0 832.0,500.0 856.0,499.0 856.0,495.0 854.0,494.0 832.0,494.0"/>
<polyline points="47.0,495.0 38.0,504.0 38.0,516.0 43.0,514.0 44.0,507.0 47.0,502.0 59.0,501.0 57.0,496.0 47.0,495.0"/>
<polyline points="194.0,496.0 188.0,498.0 183.0,503.0 181.0,507.0 181.0,521.0 188.0,531.0 194.0,534.0 201.0,534.0 211.0,526.0 211.0,509.0 209.0,504.0 201.0,497.0 194.0,496.0"/>
<polyline points="192.0,503.0 187.0,509.0 188.0,522.0 193.0,527.0 199.0,527.0 202.0,523.0 202.0,509.0 198.0,504.0 192.0,503.0"/>
<polyline points="397.0,524.0 398.0,529.0 402.0,532.0 402.0,537.0 405.0,538.0 405.0,528.0 401.0,524.0 397.0,524.0"/>
<polyline points="541.0,525.0 535.0,528.0 533.0,533.0 529.0,533.0 524.0,528.0 516.0,528.0 514.0,530.0 510.0,530.0 508.0,527.0 505.0,528.0 510.0,533.0 523.0,533.0 528.0,537.0 533.0,537.0 538.0,534.0 554.0,534.0 554.0,529.0 551.0,526.0 541.0,525.0"/>
<polyline points="910.0,543.0 910.0,547.0 914.0,548.0 928.0,548.0 930.0,546.0 929.0,543.0 910.0,543.0"/>
<polyline points="548.0,558.0 545.0,559.0 545.0,563.0 557.0,562.0 555.0,558.0 548.0,558.0"/>
<polyline points="321.0,568.0 321.0,574.0 337.0,573.0 337.0,569.0 335.0,568.0 321.0,568.0"/>
<polyline points="404.0,576.0 397.0,577.0 396.0,581.0 416.0,583.0 424.0,580.0 423.0,577.0 404.0,576.0"/>
<polyline points="117.0,580.0 114.0,582.0 116.0,586.0 130.0,586.0 132.0,584.0 131.0,581.0 128.0,580.0 117.0,580.0"/>
<polyline points="516.0,600.0 516.0,605.0 527.0,604.0 526.0,600.0 516.0,600.0"/>
<polyline points="66.0,604.0 52.0,606.0 51.0,609.0 74.0,609.0 89.0,624.0 98.0,629.0 140.0,621.0 153.0,621.0 165.0,627.0 183.0,632.0 192.0,638.0 188.0,648.0 188.0,657.0 192.0,660.0 195.0,659.0 194.0,653.0 198.0,644.0 199.0,634.0 194.0,631.0 167.0,623.0 161.0,618.0 153.0,615.0 138.0,616.0 110.0,622.0 98.0,622.0 78.0,604.0 66.0,604.0"/>
<polyline points="50.0,649.0 48.0,655.0 50.0,657.0 55.0,657.0 55.0,650.0 50.0,649.0"/>
<polyline points="259.0,692.0 257.0,694.0 257.0,698.0 262.0,700.0 264.0,698.0 264.0,694.0 259.0,692.0"/>
<polyline points="35.0,700.0 33.0,702.0 33.0,706.0 38.0,708.0 40.0,706.0 40.0,702.0 35.0,700.0"/>
</svg>
